<?xml version="1.0" standalone="no"?>
<!DOCTYPE svg PUBLIC "-//W3C//DTD SVG 20010904//EN"
 "http://www.w3.org/TR/2001/REC-SVG-20010904/DTD/svg10.dtd">
<svg version="1.0" xmlns="http://www.w3.org/2000/svg"
 width="700.000000pt" height="700.000000pt" viewBox="0 0 700.000000 700.000000"
 preserveAspectRatio="xMidYMid meet">
<metadata>
Created by potrace 1.11, written by Peter Selinger 2001-2013
</metadata>
<g transform="translate(0.000000,700.000000) scale(0.100000,-0.100000)"
fill="#000000" stroke="none">
<path d="M740 6989 c-82 -15 -101 -19 -148 -35 -266 -91 -470 -305 -559 -591
l-28 -88 -2 -2755 -2 -2755 24 -91 c82 -319 295 -542 612 -641 l88 -28 2745
-2 c1849 -2 2761 1 2795 8 28 6 60 12 73 15 34 7 142 48 193 74 156 80 307
237 384 400 20 40 53 135 60 165 2 11 8 43 14 70 12 58 10 5513 -2 5556 -45
164 -90 262 -165 361 -115 152 -295 273 -472 319 -25 6 -54 14 -65 17 -31 10
-5494 11 -5545 1z m5515 -334 c160 -40 310 -167 372 -313 44 -104 42 -5 43
-2841 0 -2976 5 -2742 -63 -2880 -42 -86 -142 -186 -227 -228 -136 -68 93 -63
-2879 -63 l-2695 0 -78 21 c-139 38 -272 144 -332 266 -40 81 -44 92 -56 143
-14 67 -14 5412 1 5482 19 89 78 196 144 263 71 71 134 110 230 141 l70 23
2705 1 c2379 0 2713 -2 2765 -15z"/>
<path d="M3832 5690 l3 -435 33 -67 c63 -129 198 -206 373 -213 159 -7 275 52
330 170 16 33 29 53 30 45 0 -8 2 -24 4 -35 2 -11 7 -42 10 -70 11 -99 0 -90
113 -90 l102 -1 0 566 0 566 -130 0 c-71 0 -130 -3 -131 -6 0 -3 -2 -183 -3
-400 -2 -381 -2 -396 -23 -435 -11 -22 -29 -47 -39 -56 -84 -74 -253 -77 -338
-7 -68 56 -69 57 -71 498 -2 217 -3 397 -4 401 0 3 -60 5 -131 5 l-131 -1 3
-435z"/>
<path d="M5105 6120 c-3 -5 304 -434 359 -500 30 -38 51 -5 -266 -434 -76
-102 -138 -188 -138 -189 0 -5 278 -2 283 3 2 3 23 32 47 65 135 186 241 325
248 324 4 0 21 -20 37 -44 17 -24 77 -108 135 -186 58 -78 108 -147 112 -153
6 -10 288 -18 288 -9 0 2 -79 110 -176 241 -96 130 -183 248 -192 261 -9 13
-28 36 -40 52 l-24 29 53 73 c30 39 117 158 194 262 78 105 144 195 147 200 5
8 -216 13 -268 6 -6 0 -67 -77 -135 -170 -68 -94 -128 -170 -134 -170 -5 0
-31 30 -57 67 -26 37 -82 114 -125 172 l-78 105 -133 1 c-73 0 -135 -3 -137
-6z"/>
<path d="M3029 4286 c-2 -2 -52 -6 -111 -9 -317 -19 -568 -149 -744 -389 -25
-35 -47 -64 -48 -65 -2 -2 -3 95 -2 215 l0 217 -515 0 -514 0 -1 -1577 c0
-1422 1 -1578 15 -1582 9 -2 243 -3 521 -2 l505 1 1 1015 c0 558 4 1031 8
1050 43 184 239 310 481 311 244 1 413 -140 441 -366 1 -11 3 -468 3 -1015 l1
-996 523 1 522 0 1 1105 c0 608 -3 1123 -7 1145 -4 22 -9 60 -12 85 -14 116
-82 300 -150 402 -49 74 -171 199 -243 251 -88 63 -265 141 -368 161 -98 20
-132 25 -206 31 -47 4 -88 9 -91 11 -3 2 -8 2 -10 0z"/>
</g>
</svg>
