<svg width="165" height="48" viewBox="0 0 165 48" fill="none" xmlns="http://www.w3.org/2000/svg">
<rect width="48.0005" height="48.0005" rx="3.99996" fill="#F6F5F2"/>
<path d="M13.8469 30.9556C13.8597 29.0124 14.9592 27.8362 16.7106 27.8362C18.4876 27.8362 19.5359 29.0124 19.5231 30.9556V42.0011H26.58V29.4726C26.5928 25.2027 23.8953 22.1089 19.7277 22.1089C16.8384 22.1089 14.5501 23.6174 13.6935 26.0976H13.489V22.3646H6.79004V42.0011H13.8469V30.9556Z" fill="#2C1A33"/>
<path d="M32.9136 11.2477C32.9136 12.2449 32.202 12.7392 31.5201 12.7392C30.7786 12.7392 30.2843 12.2151 30.2843 11.3841V7.45508H28.7417V11.6227C28.7417 13.1952 29.6366 14.0858 30.9235 14.0858C31.9037 14.0858 32.594 13.5702 32.8923 12.8372H32.9605V14.0006H34.4562V7.45508H32.9136V11.2477Z" fill="#2C1A33"/>
<path d="M37.3039 7.45508H35.6675L37.6107 10.7278L35.6164 14.0006H37.2528L38.625 11.644L40.0099 14.0006H41.6335L39.6264 10.7278L41.5994 7.45508H39.9673L38.625 9.87129L37.3039 7.45508Z" fill="#2C1A33"/>
<path d="M69.7314 22.9622C69.7418 21.3842 70.6346 20.429 72.057 20.429C73.5001 20.429 74.3514 21.3842 74.3411 22.9622V31.9324H80.072V21.7579C80.0824 18.2903 77.8917 15.7778 74.5072 15.7778C72.1608 15.7778 70.3024 17.0029 69.6068 19.017H69.4407V15.9855H64.0005V31.9324H69.7314V22.9622Z" fill="#2C1A33"/>
<path d="M89.9576 32.2231C94.3804 32.2231 97.2251 30.1051 97.7649 26.7829H92.5324C92.2001 27.6861 91.2554 28.1948 90.0822 28.1948C88.3795 28.1948 87.3828 27.0736 87.3828 25.537V25.2878H97.7649V23.9589C97.7649 18.8821 94.6503 15.7778 89.833 15.7778C84.8911 15.7778 81.735 19.0586 81.735 24.0005C81.735 29.1604 84.8496 32.2231 89.9576 32.2231ZM87.3828 22.1317C87.414 20.7509 88.556 19.8061 89.9576 19.8061C91.3799 19.8061 92.4597 20.7612 92.4908 22.1317H87.3828Z" fill="#2C1A33"/>
<path d="M109.859 24.9556C109.87 26.5337 108.956 27.4888 107.534 27.4888C106.091 27.4888 105.26 26.5337 105.25 24.9556V15.9855H99.5188V26.1599C99.5292 29.6483 101.73 32.14 105.084 32.14C107.461 32.14 109.288 30.9357 109.984 28.9008H110.15V31.9324H115.59V15.9855H109.859V24.9556Z" fill="#2C1A33"/>
<path d="M125.562 32.2231C129.984 32.2231 132.829 30.1051 133.369 26.7829H128.136C127.804 27.6861 126.859 28.1948 125.686 28.1948C123.983 28.1948 122.987 27.0736 122.987 25.537V25.2878H133.369V23.9589C133.369 18.8821 130.254 15.7778 125.437 15.7778C120.495 15.7778 117.339 19.0586 117.339 24.0005C117.339 29.1604 120.454 32.2231 125.562 32.2231ZM122.987 22.1317C123.018 20.7509 124.16 19.8061 125.562 19.8061C126.984 19.8061 128.064 20.7612 128.095 22.1317H122.987Z" fill="#2C1A33"/>
<path d="M145.962 25.4124C145.962 28.4025 143.678 29.7729 141.85 29.7729C139.815 29.7729 138.362 28.2779 138.362 25.9523V15.9855H135.912V26.1184C135.912 30.1882 138.071 32.14 141.061 32.14C143.47 32.14 145.048 30.8526 145.796 29.233H145.962V31.9324H148.412V15.9855H145.962V25.4124Z" fill="#2C1A33"/>
<path d="M154.142 15.9855H151.318L156.385 23.9589L151.318 31.9324H154.142L157.963 25.7446L161.783 31.9324H164.607L159.458 23.9589L164.607 15.9855H161.783L157.963 22.5054L154.142 15.9855Z" fill="#2C1A33"/>
</svg>
