<svg width="127" height="32" viewBox="0 0 127 32" fill="none" xmlns="http://www.w3.org/2000/svg">
<path d="M37.582 27.0001H42.342V17.9281C42.342 16.7381 43.504 16.1221 44.582 16.1221C45.646 16.1221 46.612 16.7661 46.612 18.0401V27.0001H51.4V17.4101C51.4 13.8541 48.922 12.4261 46.332 12.4261C44.05 12.4261 42.916 13.5741 42.286 14.5541V12.5241H37.582V27.0001Z" fill="#111827"/>
<path d="M60.1251 27.2801C63.2331 27.2801 66.3831 25.3901 66.8591 22.2401H62.6031C62.1831 23.4861 61.2031 23.9061 59.9991 23.9061C58.4451 23.9061 57.3951 22.8281 57.4091 20.8541H66.8311V19.6641C66.8311 15.3521 64.4791 12.2441 59.9011 12.2441C55.3651 12.2441 52.7191 15.6881 52.7191 19.9301C52.7191 24.3821 55.7151 27.2801 60.1251 27.2801ZM57.3951 18.1101C57.3951 16.7661 58.4031 15.5061 59.9011 15.5061C61.5671 15.5061 62.4071 16.6821 62.4071 18.1101H57.3951Z" fill="#111827"/>
<path d="M73.5839 27.2801C75.1379 27.2801 77.3079 26.7901 77.8399 24.0741L78.3999 27.0001H81.9559V12.5241H77.2239V21.9601C77.2239 23.1221 76.3839 23.8781 75.0399 23.8781C73.6399 23.8781 72.8699 23.0801 72.8699 21.9881V12.5241H68.0959V22.6321C68.0959 25.6281 71.0919 27.2801 73.5839 27.2801Z" fill="#111827"/>
<path d="M90.8617 27.2801C93.9697 27.2801 97.1197 25.3901 97.5957 22.2401H93.3397C92.9197 23.4861 91.9397 23.9061 90.7357 23.9061C89.1817 23.9061 88.1317 22.8281 88.1457 20.8541H97.5677V19.6641C97.5677 15.3521 95.2157 12.2441 90.6377 12.2441C86.1017 12.2441 83.4557 15.6881 83.4557 19.9301C83.4557 24.3821 86.4517 27.2801 90.8617 27.2801ZM88.1317 18.1101C88.1317 16.7661 89.1397 15.5061 90.6377 15.5061C92.3037 15.5061 93.1437 16.6821 93.1437 18.1101H88.1317Z" fill="#111827"/>
<path d="M105.2 27.2801C107.454 27.3081 109.05 26.2441 109.568 24.2981L109.736 27.0001H111.206V12.5241H109.47V21.9321C109.47 24.5361 107.846 25.7961 105.41 25.7961C102.666 25.7961 101.364 24.3261 101.364 22.1281V12.5241H99.6278V22.2401C99.6278 25.6001 101.994 27.2381 105.2 27.2801Z" fill="#111827"/>
<path d="M113.523 27.0001H115.539L120.145 20.7841L124.779 27.0001H126.767L121.181 19.4821L126.347 12.5241H124.345L120.145 18.1801L115.959 12.5241H113.957L119.109 19.4821L113.523 27.0001Z" fill="#111827"/>
<path d="M0 4C0 1.79086 1.79086 0 4 0H28C30.2091 0 32 1.79086 32 4V28C32 30.2091 30.2091 32 28 32H4C1.79086 32 0 30.2091 0 28V4Z" fill="white"/>
<path fill-rule="evenodd" clip-rule="evenodd" d="M28 1.5H4C2.61929 1.5 1.5 2.61929 1.5 4V28C1.5 29.3807 2.61929 30.5 4 30.5H28C29.3807 30.5 30.5 29.3807 30.5 28V4C30.5 2.61929 29.3807 1.5 28 1.5ZM4 0C1.79086 0 0 1.79086 0 4V28C0 30.2091 1.79086 32 4 32H28C30.2091 32 32 30.2091 32 28V4C32 1.79086 30.2091 0 28 0H4Z" fill="#111827"/>
<path d="M5 26.9998H9.76V17.9278C9.76 16.7378 10.922 16.1218 12 16.1218C13.064 16.1218 14.03 16.7658 14.03 18.0398V26.9998H18.818V17.4098C18.818 13.8538 16.34 12.4258 13.75 12.4258C11.468 12.4258 10.334 13.5738 9.704 14.5538V12.5238H5V26.9998Z" fill="#111827"/>
<path d="M19.4755 9.27C20.1405 9.275 20.8255 9.01 21.0155 8.16L21.1505 9.17H22.0855V4H20.8755V7.365C20.8755 8.01 20.4505 8.365 19.7955 8.365C19.0755 8.365 18.7205 7.97 18.7205 7.405V4H17.5005V7.545C17.5005 8.675 18.4705 9.265 19.4755 9.27Z" fill="#111827"/>
<path d="M23.1138 9.17H24.4038L25.7588 7.33L27.1188 9.17H28.4088L26.4188 6.48L28.2538 4H26.9588L25.7638 5.615L24.5688 4H23.2788L25.0988 6.48L23.1138 9.17Z" fill="#111827"/>
</svg>
