<svg width="24" height="24" viewBox="0 0 24 24" fill="none" xmlns="http://www.w3.org/2000/svg">
<path d="M0 3C0 1.34315 1.34315 0 3 0H21C22.6569 0 24 1.34315 24 3V21C24 22.6569 22.6569 24 21 24H3C1.34315 24 0 22.6569 0 21V3Z" fill="white"/>
<path fill-rule="evenodd" clip-rule="evenodd" d="M21 1.125H3C1.96447 1.125 1.125 1.96447 1.125 3V21C1.125 22.0355 1.96447 22.875 3 22.875H21C22.0355 22.875 22.875 22.0355 22.875 21V3C22.875 1.96447 22.0355 1.125 21 1.125ZM3 0C1.34315 0 0 1.34315 0 3V21C0 22.6569 1.34315 24 3 24H21C22.6569 24 24 22.6569 24 21V3C24 1.34315 22.6569 0 21 0H3Z" fill="#111827"/>
<path d="M3.75 20.2503H7.32V13.4463C7.32 12.5538 8.1915 12.0918 9 12.0918C9.798 12.0918 10.5225 12.5748 10.5225 13.5303V20.2503H14.1135V13.0578C14.1135 10.3908 12.255 9.31982 10.3125 9.31982C8.601 9.31982 7.7505 10.1808 7.278 10.9158V9.39332H3.75V20.2503Z" fill="#111827"/>
<path d="M14.6063 6.9525C15.105 6.95625 15.6188 6.7575 15.7613 6.12L15.8625 6.8775H16.5638V3H15.6563V5.52375C15.6563 6.0075 15.3375 6.27375 14.8463 6.27375C14.3063 6.27375 14.04 5.9775 14.04 5.55375V3H13.125V5.65875C13.125 6.50625 13.8525 6.94875 14.6063 6.9525Z" fill="#111827"/>
<path d="M17.335 6.8775H18.3025L19.3187 5.4975L20.3387 6.8775H21.3062L19.8137 4.86L21.19 3H20.2187L19.3225 4.21125L18.4262 3H17.4587L18.8237 4.86L17.335 6.8775Z" fill="#111827"/>
</svg>
